<svg width="79" height="25" viewBox="0 0 79 25" fill="none" xmlns="http://www.w3.org/2000/svg">
<path d="M13.576 21V12.6H15.22V21H13.576ZM20.1208 21L17.8768 16.356L17.8168 16.38L17.8888 17.796V21H16.3768V12.6H17.5888L19.7968 17.424L19.8568 17.4L19.7248 15.924V12.6H21.2368V21H20.1208ZM23.1565 12.6H26.0365V14.04H23.7325L23.6965 14.112L25.6165 17.616C26.0085 18.32 26.2045 18.856 26.2045 19.224C26.2045 20.032 25.9365 20.624 25.4005 21H22.2205V19.608H24.7045L24.7405 19.536L22.5805 15.66C22.2685 15.1 22.1125 14.644 22.1125 14.292C22.1125 13.46 22.4605 12.896 23.1565 12.6ZM28.3968 14.04H26.5848V12.6H31.8408V14.04H30.0288V21H28.3968V14.04ZM35.3278 21L35.0758 19.668H33.1798L32.9278 21H31.2958L32.9158 12.6H35.3998L36.9358 21H35.3278ZM34.1038 14.16L33.6358 16.956L33.3718 18.384H34.8718L34.5958 16.956L34.1278 14.16H34.1038ZM37.6346 21V12.6H39.2786V19.608H41.7746V21H37.6346ZM42.5916 21V12.6H44.2356V19.608H46.7316V21H42.5916ZM47.5487 21V12.6H51.8567V14.04H49.1927V16.044H51.5687V17.436H49.1927V19.608H51.9047V21H47.5487ZM52.8338 12.6H56.0258C56.5298 12.768 56.9578 13.08 57.3098 13.536C57.6698 13.984 57.8498 14.536 57.8498 15.192C57.8498 16.264 57.4258 17.052 56.5778 17.556L57.7898 21H56.1098L55.0898 17.94H54.4538V21H52.8338V12.6ZM54.4538 14.04V16.596H55.4858C55.6218 16.564 55.7698 16.428 55.9298 16.188C56.0978 15.94 56.1818 15.652 56.1818 15.324C56.1818 14.996 56.1098 14.708 55.9658 14.46C55.8298 14.212 55.6938 14.072 55.5578 14.04H54.4538ZM63.6985 17.16H63.6505H63.6985L64.3345 14.532L64.8505 12.6H66.3505L66.8905 21H65.3185L65.0905 16.416H65.0305L64.1665 19.8H63.1825L62.3185 16.416H62.2585L62.0305 21H60.4585L60.9985 12.6H62.4985L63.0145 14.532L63.6505 17.16H63.6985ZM67.8573 21V12.6H72.1653V14.04H69.5013V16.044H71.8773V17.436H69.5013V19.608H72.2133V21H67.8573ZM76.8864 21L74.6424 16.356L74.5824 16.38L74.6544 17.796V21H73.1424V12.6H74.3544L76.5624 17.424L76.6224 17.4L76.4904 15.924V12.6H78.0024V21H76.8864Z" fill="black"/>
<path d="M0 17.5H5L17.7271 0H13.2271L0 17.5Z" fill="black"/>
<path d="M15.2539 3.5L17.7539 0L22.5 5.5H75.7539L73.7539 9H20.2539L15.2539 3.5Z" fill="#0B0B0B"/>
</svg>
